<?xml version="1.0" encoding="utf-8"?>
<!-- Generator: Adobe Illustrator 16.0.0, SVG Export Plug-In . SVG Version: 6.00 Build 0)  -->
<!DOCTYPE svg PUBLIC "-//W3C//DTD SVG 1.1//EN" "http://www.w3.org/Graphics/SVG/1.1/DTD/svg11.dtd">
<svg version="1.1" id="Layer_1" xmlns="http://www.w3.org/2000/svg" xmlns:xlink="http://www.w3.org/1999/xlink" x="0px" y="0px"
	 width="500px" height="180px" viewBox="0 0 500 180" enable-background="new 0 0 500 180" xml:space="preserve">
<g>
	<g id="HTML5">
		<title>HTML5 Logo</title>
		<polygon fill="#E44D26" points="39.358,157.495 29.644,48.536 136.388,48.536 126.664,157.479 82.951,169.597 		"/>
		<polygon fill="#F16529" points="83.016,160.333 118.338,150.541 126.648,57.445 83.016,57.445 		"/>
		<polygon fill="#EBEBEB" points="83.016,97.856 65.333,97.856 64.112,84.172 83.016,84.172 83.016,70.809 82.97,70.809 
			49.507,70.809 49.827,74.394 53.112,111.221 83.016,111.221 		"/>
		<polygon fill="#EBEBEB" points="83.016,132.563 82.958,132.578 68.075,128.56 67.124,117.902 59.892,117.902 53.708,117.902 
			55.581,138.884 82.955,146.483 83.016,146.467 		"/>
		<path d="M39.576,18.926h6.791v6.709h6.212v-6.709h6.792v20.318h-6.792V32.44h-6.212v6.804h-6.791V18.926L39.576,18.926z"/>
		<path d="M68.301,25.664h-5.979v-6.738h18.751v6.738h-5.981v13.581h-6.792V25.664L68.301,25.664z"/>
		<path d="M84.049,18.926h7.081l4.357,7.139l4.351-7.139h7.084v20.318h-6.763V29.174l-4.672,7.224H95.37l-4.675-7.224v10.071h-6.645
			V18.926z"/>
		<path d="M110.301,18.926h6.794v13.602h9.549v6.716h-16.343V18.926z"/>
		<polygon fill="#FFFFFF" points="82.97,97.856 82.97,111.221 99.425,111.221 97.874,128.552 82.97,132.574 82.97,146.478 
			110.366,138.884 110.566,136.626 113.707,101.445 114.033,97.856 110.431,97.856 		"/>
		<polygon fill="#FFFFFF" points="82.97,70.809 82.97,79.108 82.97,84.14 82.97,84.172 115.206,84.172 115.206,84.172 
			115.249,84.172 115.516,81.168 116.125,74.394 116.445,70.809 		"/>
	</g>
	<path id="Responsive" fill="#532C7C" d="M474.99,23H368.523L369,118.365c0,0.004,0,0.006,0,0.01
		c0,27.51,23.602,49.809,52.998,49.809s53.111-22.11,53.111-49.62L474.99,23z M432.883,133.484L412,97.078V82h2.033
		c1.752,0,3.278-0.059,4.582-0.223c1.303-0.162,2.525-0.622,3.667-1.394c1.14-0.734,2.098-1.818,2.871-3.265
		c0.775-1.446,1.161-3.185,1.161-5.221c0-1.996-0.386-3.727-1.161-5.192c-0.773-1.467-1.731-2.567-2.871-3.299
		c-1.142-0.773-2.364-1.121-3.667-1.284c-1.304-0.163-2.83-0.122-4.582-0.122h-1.173h-4.157h-8.261l-8.514-15h20.518
		c4.521,0,8.574,0.394,12.159,1.146s6.701,2.075,9.349,3.949c1.305,0.937,2.526,2.081,3.668,3.424
		c1.139,1.344,2.139,2.844,2.993,4.493c0.854,1.651,1.527,3.454,2.016,5.409c0.489,1.955,0.733,4.034,0.733,6.233
		s-0.244,4.379-0.733,6.538c-0.488,2.16-1.304,4.217-2.443,6.172c-1.142,1.955-5.225,7.777-12.587,9.873l9.258,16.051l9.368,0.008
		L432.883,133.484z"/>
	<path id="Slideshow" fill="#009245" d="M333.818,50.006c-0.888-5.773-4.756-10.092-10.577-10.578
		c-18.512-1.542-53.55-3.526-71.4-3.526c-17.85,0-51.566,0.441-71.4,2.645c-5.806,0.645-9.689,4.803-10.577,10.578
		c-1.764,11.459-2.645,33.717-2.645,44.956c0,11.68,0.881,35.26,2.645,46.719c0.888,5.773,4.756,10.092,10.577,10.576
		c18.512,1.543,53.551,3.527,71.4,3.527c17.851,0,51.567-0.441,71.4-2.645c5.806-0.646,9.689-4.805,10.577-10.578
		c1.764-11.459,2.645-33.717,2.645-44.955C336.463,85.045,335.582,61.466,333.818,50.006z M237,120.343V70.462l43.2,24.941
		L237,120.343z"/>
</g>
</svg>
